<svg height="400pt" viewBox="0 -31 400.32908 400" width="400pt" xmlns="http://www.w3.org/2000/svg"><path d="m80.503906 295.832031c.003906-2.632812 1.160156-5.136719 3.167969-6.84375 2.101563-6.039062 6.828125-10.796875 12.851563-12.9375-.257813-.09375-.511719-.195312-.777344-.277343v-171.910157l109-79.359375-15-10.921875-124 90.28125v171.910157c8.773437 2.746093 14.746094 10.867187 14.757812 20.058593zm0 0" fill="#d4e1f4"/><path d="m175.746094 325.382812h2.238281c-.492187-2.089843-1.246094-4.105468-2.238281-6.007812zm0 0" fill="#d4e1f4"/><path d="m189.746094 103.515625c14.359375 0 26-11.640625 26-26s-11.640625-26-26-26-26 11.640625-26 26c.015625 14.351563 11.648437 25.980469 26 26zm0-40c7.730468 0 14 6.265625 14 14 0 7.730469-6.269532 14-14 14-7.730469 0-14-6.269531-14-14 .007812-7.730469 6.269531-13.992187 14-14zm0 0" fill="#0635c9"/><path d="m147.984375 325.382812h-135.578125c-.476562 1.964844-.714844 3.980469-.710938 6 0 3.3125 2.6875 6 6 6h125c3.3125 0 6-2.6875 6-6 .003907-2.019531-.234374-4.035156-.710937-6zm0 0" fill="#1ae5be"/><path d="m384.316406 261.21875c-4.832031-.007812-9.40625 2.175781-12.445312 5.929688-3.039063 3.757812-4.210938 8.691406-3.195313 13.414062l-4.542969 2.875v-21.949219c11.714844-2.792969 19.984376-13.25 20-25.292969v-26.664062c0-14.359375-11.640624-26-26-26-14.359374 0-26 11.640625-26 26v26.664062c.019532 12.042969 8.289063 22.5 20 25.292969v33.867188l-5.90625-4.21875c-2.699218-1.925781-6.445312-1.300781-8.371093 1.394531s-1.300781 6.445312 1.394531 8.371094l12.882812 9.199218v21.277344c0 3.316406 2.6875 6 6 6 3.316407 0 6-2.683594 6-6v-33.738281l11.277344-7.140625c5.695313 3.824219 13.195313 3.59375 18.644532-.578125 5.445312-4.167969 7.628906-11.347656 5.425781-17.84375s-8.300781-10.867187-15.164063-10.859375zm-40.183594-25.023438v-26.664062c0-7.734375 6.269532-14 14-14 7.734376 0 14 6.265625 14 14v26.664062c-.007812 5.402344-3.121093 10.316407-8 12.632813v-5c0-3.316406-2.683593-6-6-6-3.3125 0-6 2.683594-6 6v5c-4.878906-2.316406-7.992187-7.230469-8-12.632813zm40.183594 45.023438c-2.207031 0-4-1.792969-4-4 0-2.210938 1.792969-4 4-4 2.210938 0 4 1.789062 4 4 0 2.207031-1.789062 4-4 4zm0 0" fill="#1ae5be"/><path d="m389.316406 325.382812h-63.570312v-212.78125l44.320312 32.261719c2.679688 1.949219 6.429688 1.359375 8.378906-1.320312 1.949219-2.679688 1.359376-6.429688-1.320312-8.378907l-51.378906-37.410156v-75.742187c0-3.3125-2.6875-6-6-6h-35.011719c-3.3125 0-6 2.6875-6 6v41.511719l-85.457031-62.210938c-2.105469-1.53125-4.957032-1.53125-7.0625 0l-183.847656 133.851562c-2.597657 1.976563-3.140626 5.664063-1.21875 8.304688 1.921874 2.636719 5.597656 3.257812 8.277343 1.394531l44.320313-32.261719v163.042969c1.871094-.542969 3.8125-.816406 5.757812-.8125 2.117188 0 4.222656.316407 6.242188.941407v-171.910157l124-90.28125 124 90.28125v221.519531h-78v-114c0-3.3125-2.6875-6-6-6h-60c-3.3125 0-6 2.6875-6 6v114h-153.570313c-3.3125 0-6 2.6875-6 6s2.6875 6 6 6h379.140625c3.3125 0 6-2.6875 6-6s-2.6875-6-6-6zm-165.570312 0h-48v-108h48zm90-236.359374-23.011719-16.761719v-44.25h23.011719zm0 0" fill="#0635c9"/><path d="m122.695312 305.382812h-.507812c4.535156-8.835937 2.265625-19.640624-5.449219-25.898437-7.710937-6.261719-18.753906-6.261719-26.464843 0-7.714844 6.257813-9.984376 17.0625-5.449219 25.898437h-6.636719c3.339844-6.503906 3.054688-14.28125-.761719-20.519531-3.816406-6.242187-10.605469-10.042969-17.921875-10.03125-1.945312-.003906-3.886718.269531-5.757812.8125-6.042969 1.710938-11 6.046875-13.503906 11.808594-2.503907 5.761719-2.289063 12.34375.582031 17.929687h-3.128907c-12.042968.011719-22.503906 8.285157-25.289062 20h12.648438c2.316406-4.882812 7.238281-7.996093 12.640624-8h85c5.40625 0 10.332032 3.113282 12.652344 8h12.636719c-2.78125-11.71875-13.246094-19.992187-25.289063-20zm-63.191406-.550781c-4.96875 0-9-4.027343-9-9 0-4.96875 4.03125-9 9-9 4.972656 0 9 4.03125 9 9-.003906 4.96875-4.03125 8.992188-9 9zm44 0c-4.96875 0-9-4.027343-9-9 0-4.96875 4.03125-9 9-9 4.972656 0 9 4.03125 9 9-.003906 4.96875-4.03125 8.992188-9 9zm0 0" fill="#1ae5be"/></svg>