<svg height="439pt" viewBox="-12 0 439 439.54" width="439pt" xmlns="http://www.w3.org/2000/svg"><path d="m387.222656 408.769531h-319.90625c-22.089844 0-40-17.90625-40-40v-168.109375l-20-17.054687v205.164062c0 22.09375 17.910156 40 40 40h319.90625c15.722656 0 29.988282-9.214843 36.457032-23.542969-5.171876 2.339844-10.78125 3.546876-16.457032 3.542969zm0 0" fill="#d4e1f4"/><g fill="#1ae5be"><path d="m234.933594 166.078125-39.585938 32.210937-14.835937-17.375c-1.617188-1.929687-4.144531-2.839843-6.621094-2.390624-2.476563.449218-4.519531 2.195312-5.351563 4.570312-.832031 2.375-.328124 5.011719 1.324219 6.910156l19.277344 22.574219c2.46875 2.890625 6.792969 3.28125 9.738281.882813l44.890625-36.523438c1.957031-1.570312 2.921875-4.070312 2.527344-6.550781-.390625-2.480469-2.082031-4.558594-4.433594-5.449219-2.347656-.890625-4.992187-.453125-6.929687 1.140625zm0 0"/><path d="m207.269531 112.769531c-42.527343 0-77 34.472657-77 77 0 42.527344 34.472657 77 77 77 42.527344 0 77-34.472656 77-77 .109375-20.453125-7.964843-40.105469-22.429687-54.570312-14.464844-14.460938-34.113282-22.539063-54.570313-22.429688zm0 140c-34.792969 0-63-28.207031-63-63s28.207031-63 63-63 63 28.207031 63 63-28.207031 63-63 63zm0 0"/><path d="m246.679688 2.21875c-.019532-.019531-.039063-.027344-.058594-.046875-1.316406-1.390625-3.148438-2.17578125-5.0625-2.171875-.261719 0-.527344.0195312-.789063.0507812l-.121093-.0195312c-.238282-.0195312-.46875-.03125-.699219-.03125h-120.96875c-21.367188.0273438-38.683594 17.34375-38.710938 38.710938v189.660156l14 11.859375v-201.519531c.019531-13.640626 11.070313-24.691407 24.710938-24.710938h115.578125v47c.023437 21.371094 17.339844 38.691406 38.710937 38.710938h47v140.480468l14-11.871094v-135.789062c0-1.859375-.742187-3.640625-2.058593-4.953125zm26.589843 83.492188c-13.640625-.011719-24.699219-11.070313-24.710937-24.710938v-37.128906l61.960937 61.839844zm0 0"/></g><path d="m410.640625 169.261719-76.371094-64.660157v18.339844l62.171875 52.648438-62.171875 52.730468-14 11.871094-91.597656 77.6875c-12.292969 10.480469-30.371094 10.488282-42.671875.019532l-91.730469-77.667969-14-11.859375-62.167969-52.640625 62.167969-52.730469v-18.371094l-75.960937 64.429688c-2.460938 1.152344-4.035156 3.625-4.039063 6.339844v217.140624c.027344 25.949219 21.054688 46.972657 47 47h320c25.945313-.027343 46.972657-21.050781 47-47v-217.140624c.003907-2.554688-1.390625-4.90625-3.628906-6.136719zm-10.371094 223.277343c.007813 5.441407-1.339843 10.800782-3.917969 15.589844l-95.382812-97.039062c-2.710938-2.757813-7.144531-2.796875-9.902344-.085938-2.761718 2.710938-2.796875 7.148438-.085937 9.90625l96.230469 97.898438c-5.726563 4.375-12.734376 6.738281-19.941407 6.730468h-320c-7.222656.007813-14.246093-2.367187-19.980469-6.757812l95.699219-97.890625c2.574219-2.785156 2.464844-7.109375-.246093-9.757813-2.710938-2.648437-7.039063-2.660156-9.761719-.023437l-94.808594 96.96875c-2.570313-4.773437-3.910156-10.113281-3.902344-15.539063v-201.710937l68.550781 58.042969 94.128907 79.707031c17.515625 14.917969 43.265625 14.90625 60.769531-.019531l94-79.730469 68.550781-58.128906zm0 0" fill="#0635c9"/></svg>